<svg width="20" height="20" viewBox="0 0 20 20" fill="none" xmlns="http://www.w3.org/2000/svg">
<g id="Facebook">
<path id="Vector" d="M13.75 5H11.25C10.7898 5 10.4167 5.3731 10.4167 5.83333V8.33333H13.75C13.8448 8.33123 13.9347 8.37533 13.991 8.45158C14.0474 8.52783 14.0632 8.62667 14.0334 8.71667L13.4167 10.55C13.3599 10.7182 13.2026 10.832 13.025 10.8333H10.4167V17.0833C10.4167 17.3134 10.2301 17.5 10 17.5H7.91671C7.68659 17.5 7.50004 17.3134 7.50004 17.0833V10.8333H6.25004C6.01992 10.8333 5.83337 10.6467 5.83337 10.4167V8.75C5.83337 8.51992 6.01992 8.33333 6.25004 8.33333H7.50004V5.83333C7.50004 3.99238 8.99246 2.5 10.8334 2.5H13.75C13.9801 2.5 14.1667 2.68655 14.1667 2.91667V4.58333C14.1667 4.81345 13.9801 5 13.75 5Z" fill="black"/>
</g>
</svg>
