<svg width="20" height="20" viewBox="0 0 20 20" fill="none" xmlns="http://www.w3.org/2000/svg">
<g id="Twitter">
<path id="Vector" d="M17.4773 5.59783C17.0903 6.1141 16.6225 6.56444 16.0919 6.93147C16.0919 7.06633 16.0919 7.20118 16.0919 7.34354C16.0961 9.79258 15.1179 12.1409 13.3765 13.8621C11.635 15.5833 9.27598 16.5333 6.82836 16.4991C5.41331 16.5038 4.01637 16.1808 2.747 15.5551C2.67855 15.5252 2.63441 15.4575 2.63466 15.3828V15.3003C2.63466 15.1928 2.72184 15.1056 2.82937 15.1056C4.22033 15.0597 5.56166 14.5774 6.6636 13.727C5.40459 13.7016 4.27181 12.9558 3.75048 11.8089C3.72416 11.7463 3.73235 11.6744 3.77212 11.6193C3.81189 11.5643 3.87748 11.5339 3.94519 11.5393C4.32783 11.5777 4.7143 11.5421 5.08348 11.4343C3.69364 11.1458 2.64932 9.992 2.49986 8.57975C2.49456 8.512 2.52491 8.44642 2.57998 8.40658C2.63504 8.36684 2.70685 8.35858 2.76946 8.385C3.14243 8.54958 3.54506 8.63625 3.95268 8.63967C2.73485 7.84038 2.20882 6.32004 2.67211 4.93852C2.71993 4.80428 2.83482 4.7051 2.97456 4.67745C3.1143 4.64979 3.25828 4.69774 3.35358 4.80366C4.99697 6.55271 7.25501 7.59497 9.65156 7.71066C9.59023 7.46571 9.56006 7.21397 9.56173 6.96143C9.58415 5.63727 10.4035 4.45768 11.6361 3.97489C12.8687 3.49212 14.2707 3.80169 15.1858 4.7587C15.8095 4.63988 16.4125 4.43038 16.9756 4.13684C17.0168 4.11109 17.0691 4.11109 17.1104 4.13684C17.1361 4.17811 17.1361 4.23043 17.1104 4.2717C16.8376 4.89627 16.3769 5.4201 15.7924 5.77016C16.3042 5.7108 16.8071 5.59006 17.2901 5.41053C17.3308 5.38285 17.3842 5.38285 17.4249 5.41053C17.459 5.42612 17.4845 5.45593 17.4946 5.49202C17.5046 5.52811 17.4983 5.56682 17.4773 5.59783Z" fill="black"/>
</g>
</svg>
